<svg width="157" height="156" viewBox="0 0 157 156" fill="none" xmlns="http://www.w3.org/2000/svg">
<path d="M106.553 97L105.493 101L104.723 103.88L104.083 106.27C104.035 106.444 103.975 106.614 103.903 106.78C103.693 107.28 103.377 107.729 102.976 108.095C102.576 108.461 102.1 108.736 101.583 108.9C101.293 108.999 100.99 109.06 100.683 109.08C99.847 109.127 99.0192 108.891 98.3334 108.41C98.2334 108.35 98.1334 108.27 98.0334 108.2L97.4834 107.75L96.7934 107.19L95.9634 106.51L94.4434 105.28L90.6434 102.2L90.0734 102.66L92.8534 108.83L93.2534 109.73L93.8834 111.13L94.0434 111.48L94.8334 113.24L94.9234 113.44L102.453 130.18L107.733 118.18C107.93 117.76 108.274 117.427 108.699 117.243C109.124 117.058 109.603 117.036 110.043 117.18L122.533 121.18L112.963 99.91L112.073 97.91L111.793 97.28L110.333 97.22L106.553 97Z" fill="#179999"/>
<path d="M99.1837 85.8601C100.418 85.8601 101.602 85.3705 102.475 84.4987C103.349 83.6269 103.841 82.4442 103.844 81.21V76.55C103.842 75.5362 103.509 74.5507 102.895 73.7438C102.281 72.9368 101.42 72.3526 100.444 72.0801C100.035 71.9587 99.6103 71.8981 99.1837 71.9001H94.7237C94.4747 71.9001 94.2281 71.8508 93.9982 71.7552C93.7682 71.6596 93.5594 71.5195 93.3838 71.3429C93.2081 71.1664 93.0691 70.9569 92.9747 70.7264C92.8803 70.4959 92.8324 70.2491 92.8337 70V64.5401C92.8361 64.0309 92.6939 63.5316 92.4237 63.1C92.1807 62.7029 91.8397 62.3748 91.4335 62.1472C91.0272 61.9196 90.5694 61.8 90.1037 61.8H88.9837V85.8601H99.1837Z" fill="#FAF9F5"/>
<path d="M85.204 71.8999H80.224V85.8599H85.204V71.8999Z" fill="#179999"/>
<path d="M65.1728 97.5299C64.5424 97.565 63.913 97.4437 63.3407 97.1768C62.7685 96.9098 62.2711 96.5055 61.8928 95.9999C61.5178 95.4879 61.2781 94.8895 61.196 94.2602C61.1138 93.6309 61.1918 92.991 61.4228 92.3999L64.8528 83.5099L56.8528 78.3199C56.3226 77.9736 55.887 77.5006 55.5855 76.9436C55.284 76.3866 55.1261 75.7632 55.1261 75.1299C55.1261 74.4966 55.284 73.8732 55.5855 73.3162C55.887 72.7592 56.3226 72.2862 56.8528 71.9399L64.8528 66.7699L61.4328 57.8599C61.205 57.2682 61.1288 56.6288 61.2113 56.0001C61.2938 55.3714 61.5323 54.7734 61.9051 54.2604C62.2778 53.7475 62.773 53.336 63.3455 53.0634C63.9181 52.7909 64.5497 52.6659 65.1828 52.6999L74.6828 53.2199L77.1528 43.9999C77.3131 43.386 77.6245 42.8219 78.0588 42.3592C78.493 41.8966 79.0361 41.55 79.6387 41.3511C80.2412 41.1523 80.884 41.1075 81.5083 41.2208C82.1326 41.3341 82.7186 41.602 83.2128 41.9999L90.6028 47.9999L91.8228 49.4699L90.6228 47.9999L93.2428 45.8699L81.6928 37.6199C80.7375 36.9367 79.5924 36.5693 78.4178 36.5693C77.2433 36.5693 76.0982 36.9367 75.1428 37.6199L47.7628 57.1799C47.0396 57.6949 46.4487 58.3739 46.0385 59.1613C45.6282 59.9487 45.4104 60.8221 45.4028 61.7099L45.1128 94.1199C45.1054 95.0368 45.3208 95.9419 45.7407 96.7571C46.1605 97.5724 46.7721 98.2734 47.5228 98.7999L60.8328 108.07L65.5828 97.5099L65.1728 97.5299Z" fill="#FAF9F5"/>
<path d="M80.8237 109.05C79.9873 109.048 79.1747 108.771 78.5115 108.261C77.8482 107.751 77.3711 107.038 77.1537 106.23L74.6937 97L69.8237 97.26L63.9837 110.26L75.1437 118C76.0938 118.668 77.2271 119.027 78.3887 119.027C79.5504 119.027 80.6837 118.668 81.6338 118L90.0938 112L87.0238 105.16L83.2137 108.2C82.5388 108.75 81.6945 109.05 80.8237 109.05Z" fill="#179999"/>
<path d="M97.9729 46.9299L96.4429 48.1599L93.9029 50.2199L93.0129 50.9399C92.3315 51.4844 91.4851 51.7806 90.6129 51.7799C89.7444 51.7768 88.9024 51.4808 88.2229 50.9399L80.8329 44.9399L78.3329 54.1399C78.1123 54.9855 77.6092 55.7302 76.9071 56.2504C76.2049 56.7706 75.346 57.0351 74.4729 56.9999L64.9629 56.4899L68.3329 65.3599C68.6412 66.1735 68.6626 67.068 68.3935 67.8954C68.1244 68.7227 67.5809 69.4335 66.8529 69.9099L58.8529 75.0799L66.8529 80.2899C67.5823 80.7652 68.1269 81.4758 68.3962 82.3036C68.6655 83.1315 68.6431 84.0266 68.3329 84.8399L64.9129 93.7299L67.3329 93.6099L71.5729 93.3899L74.4729 93.2399C75.3411 93.2008 76.1967 93.4588 76.8985 93.9715C77.6003 94.4842 78.1063 95.2209 78.3329 96.0599L80.7829 105.26L85.3829 101.53L86.9029 100.31L88.2029 99.3099L88.4329 99.1399C89.0668 98.6996 89.8211 98.4657 90.5929 98.4699C91.4651 98.4693 92.3115 98.7655 92.9929 99.3099L95.9929 101.77L97.5429 103L99.0629 104.23L99.9629 104.96L100.403 105.32L100.623 104.49L102.883 96.1099C103.108 95.2682 103.615 94.5292 104.32 94.016C105.024 93.5028 105.883 93.2466 106.753 93.2899L110.043 93.4699L111.393 93.5399H112.163L113.283 93.5999L114.283 93.6599H115.163L116.253 93.7199L115.163 90.8799L113.333 85.9999L112.903 84.8699C112.58 84.0583 112.546 83.1604 112.806 82.3266C113.067 81.4928 113.606 80.7738 114.333 80.2899L115.173 79.7399L122.333 75.1199L115.173 70.4599L114.333 69.9099C113.604 69.4347 113.059 68.7241 112.79 67.8962C112.52 67.0684 112.543 66.1733 112.853 65.3599L113.333 64.2399L115.033 59.8499L116.333 56.4699L113.693 56.5999L111.333 56.7199L108.593 56.8599L106.723 56.9599C105.852 57.0052 104.992 56.7496 104.288 56.2362C103.583 55.7227 103.077 54.9826 102.853 54.1399L102.393 52.4299L101.633 49.5599L100.873 46.6999L100.403 44.9399L99.4729 45.6999L97.9729 46.9299ZM101.623 89.2799C100.831 89.5177 100.009 89.6389 99.1829 89.6399H78.3329C77.8316 89.6399 77.3509 89.4408 76.9965 89.0864C76.642 88.7319 76.4429 88.2512 76.4429 87.7499V69.9999C76.4482 69.5022 76.6496 69.0266 77.0035 68.6764C77.3574 68.3263 77.8351 68.1299 78.3329 68.1299H85.2029V59.9099C85.1982 59.8902 85.1982 59.8697 85.2029 59.8499C85.2082 59.5149 85.3039 59.1875 85.4799 58.9023C85.6559 58.6171 85.9057 58.3848 86.2029 58.2299C86.4733 58.0951 86.7707 58.0233 87.0729 58.0199H90.0729C91.0737 58.0191 92.0611 58.2498 92.958 58.6939C93.8549 59.138 94.6369 59.7835 95.2429 60.5799C95.7554 61.2434 96.1325 62.0011 96.3529 62.8099L96.4729 63.2999C96.5455 63.7093 96.5823 64.1242 96.5829 64.5399V68.1299H99.1529C99.6997 68.1289 100.245 68.1791 100.783 68.2799C101.652 68.4519 102.489 68.7589 103.263 69.1899C104.137 69.6845 104.919 70.3274 105.573 71.0899C106.758 72.4643 107.46 74.1888 107.573 75.9999C107.583 76.1831 107.583 76.3667 107.573 76.5499V81.2099C107.572 81.8121 107.505 82.4125 107.373 82.9999C107.052 84.4679 106.345 85.8236 105.326 86.9275C104.306 88.0314 103.011 88.8434 101.573 89.2799H101.623Z" fill="#D6B66B"/>
<path d="M127.704 123.47L116.034 97.5299C116.667 97.5648 117.299 97.4402 117.872 97.1677C118.444 96.8951 118.939 96.4833 119.311 95.9698C119.683 95.4564 119.921 94.8578 120.002 94.2289C120.082 93.5999 120.004 92.9608 119.774 92.3699L116.354 83.4599L124.354 78.2899C124.884 77.9436 125.32 77.4705 125.621 76.9136C125.923 76.3566 126.081 75.7332 126.081 75.0999C126.081 74.4665 125.923 73.8432 125.621 73.2862C125.32 72.7292 124.884 72.2562 124.354 71.9099L116.354 66.7199L119.774 57.8299C120.006 57.2396 120.086 56.6002 120.006 55.9709C119.925 55.3416 119.687 54.7428 119.314 54.2299C118.94 53.7181 118.444 53.3075 117.871 53.0351C117.299 52.7628 116.667 52.6373 116.034 52.6699L109.724 52.9999L105.724 50.1499L104.084 43.9999C103.923 43.3862 103.609 42.8232 103.172 42.3634C102.735 41.9035 102.189 41.5617 101.584 41.3699C100.981 41.1733 100.339 41.1307 99.7151 41.246C99.0915 41.3613 98.5067 41.6307 98.014 42.0299L96.334 43.3999L83.934 34.5499C82.3385 33.4083 80.4258 32.7944 78.464 32.7944C76.5022 32.7944 74.5895 33.4083 72.994 34.5499L45.564 54.0999C44.3576 54.9646 43.3721 56.1017 42.6875 57.4187C42.0029 58.7357 41.6386 60.1956 41.624 61.6799L41.334 94.0899C41.3161 95.6187 41.671 97.1289 42.3679 98.4897C43.0649 99.8505 44.083 101.021 45.334 101.9L59.224 111.58L60.804 112.68L62.384 113.77L72.944 121.14C74.5396 122.251 76.4395 122.841 78.3835 122.83C80.3276 122.819 82.2208 122.208 83.804 121.08L88.944 117.4L91.644 115.48L91.764 115.74L92.764 118.04L100.664 135.6C100.812 135.932 101.054 136.215 101.359 136.414C101.664 136.612 102.02 136.719 102.384 136.72C102.749 136.715 103.104 136.607 103.409 136.406C103.714 136.206 103.955 135.923 104.104 135.59L110.404 121.24L125.324 126.04C125.671 126.15 126.043 126.158 126.395 126.062C126.746 125.967 127.063 125.771 127.306 125.499C127.549 125.228 127.708 124.892 127.765 124.532C127.821 124.172 127.772 123.803 127.624 123.47H127.704ZM96.444 48.1599L97.974 46.9299L99.504 45.6999L100.434 44.9399L100.904 46.6999L101.664 49.5599L102.424 52.4299L102.884 54.1399C103.1 54.99 103.603 55.7392 104.309 56.2605C105.014 56.7818 105.878 57.043 106.754 56.9999L108.624 56.8999L111.334 56.7199L113.614 56.5999L116.254 56.4699L114.954 59.8499L113.334 64.2399L112.904 65.3599C112.589 66.1678 112.559 67.059 112.819 67.8863C113.079 68.7136 113.613 69.4274 114.334 69.9099L115.174 70.4599L122.334 75.1199L115.174 79.7399L114.334 80.2899C113.605 80.7651 113.06 81.4758 112.791 82.3036C112.521 83.1314 112.544 84.0265 112.854 84.8399L113.334 85.9999L115.224 90.9399L116.314 93.7799L115.224 93.7199H114.344L113.344 93.6599L112.224 93.5999H111.454L110.104 93.5299L106.814 93.3499C105.944 93.3065 105.085 93.5628 104.381 94.0759C103.676 94.5891 103.169 95.3282 102.944 96.1699L100.684 104.55L100.464 105.38L100.024 105.02L99.124 104.29L97.544 103L96.034 101.72L93.034 99.2599C92.3526 98.7155 91.5062 98.4192 90.634 98.4199C89.8622 98.4156 89.1079 98.6496 88.474 99.0899L88.244 99.2599L86.944 100.26L85.424 101.48L80.824 105.21L78.334 96.0599C78.1067 95.2174 77.5977 94.4781 76.8918 93.965C76.1859 93.4519 75.3256 93.196 74.454 93.2399L71.554 93.3899L67.334 93.6099L64.954 93.7299L68.334 84.8399C68.6442 84.0265 68.6666 83.1314 68.3973 82.3036C68.128 81.4758 67.5834 80.7651 66.854 80.2899L58.854 75.0799L66.854 69.9099C67.582 69.4334 68.1255 68.7227 68.3946 67.8953C68.6637 67.0679 68.6423 66.1735 68.334 65.3599L64.924 56.4499L74.434 56.9599C75.3085 57.0066 76.1726 56.7521 76.8823 56.239C77.5919 55.7258 78.1043 54.985 78.334 54.1399L80.814 44.9299L88.204 50.9299C88.8835 51.4708 89.7255 51.7667 90.594 51.7699C91.4662 51.7706 92.3126 51.4743 92.994 50.9299L93.884 50.2099L96.444 48.1599ZM60.834 108.07L47.524 98.7999C46.7732 98.2734 46.1616 97.5723 45.7418 96.7571C45.322 95.9419 45.1066 95.0368 45.114 94.1199L45.404 61.7099C45.4116 60.8221 45.6294 59.9487 46.0396 59.1613C46.4498 58.3739 47.0408 57.6949 47.764 57.1799L75.144 37.6199C76.0994 36.9367 77.2445 36.5693 78.419 36.5693C79.5935 36.5693 80.7386 36.9367 81.694 37.6199L93.244 45.8699L90.624 47.9999L91.824 49.4699L90.604 47.9999L83.214 41.9999C82.7198 41.6019 82.1338 41.3341 81.5095 41.2208C80.8852 41.1074 80.2424 41.1523 79.6399 41.3511C79.0373 41.55 78.4941 41.8966 78.0599 42.3592C77.6257 42.8219 77.3143 43.3859 77.154 43.9999L74.674 53.2199L65.174 52.6999C64.5408 52.6659 63.9092 52.7909 63.3367 53.0634C62.7642 53.336 62.269 53.7475 61.8962 54.2604C61.5235 54.7734 61.285 55.3714 61.2025 56.0001C61.12 56.6288 61.1962 57.2682 61.424 57.8599L64.844 66.7699L56.844 71.9399C56.3137 72.2862 55.8781 72.7592 55.5766 73.3162C55.2752 73.8732 55.1173 74.4965 55.1173 75.1299C55.1173 75.7632 55.2752 76.3866 55.5766 76.9436C55.8781 77.5005 56.3137 77.9736 56.844 78.3199L64.844 83.5099L61.414 92.3999C61.183 92.991 61.105 93.6309 61.1871 94.2602C61.2693 94.8895 61.509 95.4879 61.884 95.9999C62.2589 96.511 62.7549 96.9212 63.3273 97.1934C63.8998 97.4657 64.5309 97.5916 65.164 97.5599H65.574L60.834 108.07ZM81.634 118C80.6839 118.668 79.5506 119.027 78.389 119.027C77.2274 119.027 76.0941 118.668 75.144 118L63.984 110.27L69.824 97.2699L74.694 96.9999L77.154 106.2C77.312 106.815 77.6222 107.381 78.0561 107.846C78.4901 108.31 79.0337 108.658 79.6372 108.857C80.2407 109.056 80.8845 109.1 81.5095 108.985C82.1345 108.871 82.7207 108.6 83.214 108.2L87.024 105.12L90.094 112L81.634 118ZM110.024 117.12C109.583 116.976 109.105 116.998 108.68 117.182C108.254 117.367 107.911 117.7 107.714 118.12L102.434 130.12L94.904 113.44L94.814 113.24L94.024 111.48L93.864 111.13L93.234 109.73L92.834 108.83L90.054 102.66L90.624 102.2L94.424 105.28L95.944 106.51L96.774 107.19L97.464 107.75L98.014 108.2C98.114 108.27 98.214 108.35 98.314 108.41C99.0104 108.881 99.8456 109.103 100.684 109.04C100.991 109.02 101.293 108.959 101.584 108.86C102.101 108.695 102.576 108.421 102.977 108.055C103.377 107.689 103.694 107.24 103.904 106.74C103.976 106.574 104.036 106.404 104.084 106.23L104.724 103.84L105.494 101L106.554 96.9999L110.284 97.2099L111.794 97.2899L112.074 97.9199L112.964 99.9199L122.514 121.15L110.024 117.12Z" fill="#0B7373"/>
<path d="M87.0927 58C86.7906 58.0034 86.4931 58.0752 86.2227 58.21C85.9256 58.3649 85.6758 58.5972 85.4998 58.8824C85.3237 59.1675 85.228 59.4949 85.2227 59.83C85.2181 59.8497 85.2181 59.8703 85.2227 59.89V68.11H78.3327C77.8315 68.11 77.3507 68.3091 76.9963 68.6636C76.6419 69.018 76.4427 69.4987 76.4427 70V87.75C76.4427 88.2513 76.6419 88.732 76.9963 89.0864C77.3507 89.4409 77.8315 89.64 78.3327 89.64H99.1827C100.009 89.639 100.831 89.5177 101.623 89.28C103.061 88.8435 104.356 88.0314 105.375 86.9276C106.395 85.8237 107.102 84.4679 107.423 83C107.555 82.4125 107.622 81.8122 107.623 81.21V76.55C107.633 76.3668 107.633 76.1832 107.623 76C107.51 74.1889 106.808 72.4644 105.623 71.09C104.975 70.3293 104.2 69.6865 103.333 69.19C102.559 68.759 101.722 68.4519 100.853 68.28C100.315 68.1792 99.7696 68.129 99.2227 68.13H96.6127V64.54C96.6122 64.1243 96.5754 63.7093 96.5027 63.3L96.3827 62.81C96.1624 62.0011 95.7852 61.2435 95.2727 60.58C94.6688 59.7799 93.8877 59.1305 92.9907 58.6829C92.0937 58.2353 91.1052 58.0015 90.1027 58H87.0927ZM85.2027 85.86H80.2027V71.86H85.2027V85.86ZM92.4227 63.1C92.6929 63.5315 92.8351 64.0309 92.8327 64.54V70C92.8327 70.5013 93.0319 70.982 93.3863 71.3364C93.7407 71.6909 94.2215 71.89 94.7227 71.89H99.1827C99.6093 71.888 100.034 71.9487 100.443 72.07C101.419 72.3425 102.28 72.9268 102.894 73.7337C103.508 74.5407 103.841 75.5261 103.843 76.54V81.2C103.84 82.4342 103.348 83.6169 102.474 84.4887C101.601 85.3604 100.417 85.85 99.1827 85.85H88.9827V61.8H90.1027C90.5684 61.8 91.0262 61.9195 91.4324 62.1471C91.8387 62.3748 92.1796 62.7028 92.4227 63.1Z" fill="#0B7373"/>
</svg>
