<svg width="156" height="156" viewBox="0 0 156 156" fill="none" xmlns="http://www.w3.org/2000/svg">
<path d="M66.7696 112.81L74.7696 118.42C75.7197 119.088 76.853 119.447 78.0146 119.447C79.1762 119.447 80.3095 119.088 81.2596 118.42L108.7 98.8201L109 98.5801H82.1496C78.2669 98.5855 74.5287 100.053 71.6788 102.69C68.8288 105.326 67.0762 108.94 66.7696 112.81Z" fill="#FAF9F5"/>
<path d="M77.6208 65.0899C78.1332 65.0921 78.6277 64.9024 79.0072 64.5581C79.3866 64.2139 79.6234 63.74 79.6708 63.2299L81.2308 47.6499C76.7617 48.916 72.6675 51.2497 69.3008 54.4499L75.9108 64.1899C76.1005 64.4683 76.3556 64.6959 76.6538 64.8528C76.9519 65.0098 77.2839 65.0912 77.6208 65.0899Z" fill="#179999"/>
<path d="M98.7298 63.2299C98.7675 63.6532 98.9345 64.0545 99.2082 64.3796C99.4818 64.7046 99.8489 64.9375 100.26 65.0467C100.67 65.1559 101.104 65.1361 101.503 64.99C101.902 64.8439 102.247 64.5785 102.49 64.2299L107.56 56.7599L108.63 55.1999L109.11 54.4899C106.181 51.7032 102.694 49.5696 98.8797 48.2299C98.3297 48.0299 97.7597 47.8499 97.1797 47.6899L97.3597 49.4599L98.7298 63.2299Z" fill="#179999"/>
<path d="M68.7201 50C72.4998 46.9594 76.9102 44.8002 81.6301 43.68L82.1401 38.57L81.3601 38C80.4047 37.3168 79.2596 36.9495 78.0851 36.9495C76.9106 36.9495 75.7654 37.3168 74.8101 38L63.5801 46L67.1701 51.3C67.6701 50.86 68.1901 50.42 68.7201 50Z" fill="#FAF9F5"/>
<path d="M53.0595 83.72C53.0617 82.4637 53.4629 81.2404 54.2051 80.2268C54.9474 79.2131 55.9924 78.4614 57.1895 78.08C56.9509 74.07 56.2974 70.0954 55.2395 66.22L51.9995 54.29L47.4295 57.55C46.7067 58.0677 46.1162 58.7487 45.7062 59.5376C45.2961 60.3265 45.078 61.201 45.0695 62.09L44.7795 94.5C44.7721 95.417 44.9876 96.322 45.4074 97.1373C45.8272 97.9525 46.4388 98.6535 47.1895 99.18L63.2895 110.39C64.1346 106.006 66.4788 102.053 69.92 99.2083C73.3612 96.3638 77.6849 94.8052 82.1495 94.8H111C111.01 94.6102 111.01 94.4199 111 94.23V89.65H58.9995C57.4259 89.65 55.9165 89.0256 54.8029 87.9138C53.6892 86.802 53.0622 85.2937 53.0595 83.72Z" fill="#FAF9F5"/>
<path d="M119.41 81.5701H92.6797L90.5397 83.7101C90.1814 84.0605 89.7008 84.2577 89.1997 84.2601C88.9527 84.2603 88.7082 84.2118 88.48 84.1174C88.2518 84.023 88.0444 83.8846 87.8697 83.7101L85.7597 81.6001H58.9997C58.4295 81.6001 57.8826 81.8266 57.4794 82.2298C57.0762 82.633 56.8497 83.1799 56.8497 83.7501C56.8576 84.3151 57.0876 84.8543 57.4899 85.251C57.8923 85.6478 58.4346 85.8702 58.9997 85.8701H119.42C119.991 85.8701 120.539 85.6439 120.943 85.241C121.348 84.8381 121.577 84.2912 121.58 83.7201C121.579 83.1773 121.372 82.6551 121 82.2601C120.797 82.041 120.551 81.8666 120.277 81.7478C120.004 81.629 119.708 81.5685 119.41 81.5701Z" fill="#D6B66B"/>
<path d="M118.869 46.81L113.869 54.09L112.769 55.71L112.599 56L111.739 57.27L111.489 57.63L110.339 59.33L105.619 66.33C105.546 66.4414 105.466 66.5483 105.379 66.65C104.705 67.5179 103.795 68.1739 102.759 68.54C101.468 69.0161 100.05 69.0161 98.7592 68.54C97.724 68.1719 96.8151 67.5163 96.1392 66.65C95.4643 65.7823 95.0452 64.7432 94.9292 63.65L93.2892 46.83V46.5L93.1292 44.9L92.9992 44L92.8992 43L92.7492 41.51L92.1792 35.79C92.1792 34.9944 91.8631 34.2313 91.3005 33.6687C90.7379 33.1061 89.9749 32.79 89.1792 32.79C88.3836 32.79 87.6205 33.1061 87.0579 33.6687C86.4953 34.2313 86.1792 34.9944 86.1792 35.79L86.0792 36.79L85.8592 38.95L85.6392 41.12L85.4892 43L85.3092 44.91L85.1092 46.84L83.4392 63.6C83.3193 64.694 82.8968 65.7329 82.2192 66.6C81.4619 67.5687 80.4176 68.2731 79.2358 68.6126C78.054 68.952 76.7952 68.9091 75.6392 68.49C74.6021 68.13 73.6872 67.4855 72.9992 66.63L72.7592 66.31L66.6492 57.31L65.5692 55.72L64.4692 54.1L60.4692 48.23L59.4692 46.82L59.3692 46.67C58.9881 46.1493 58.5255 45.6934 57.9992 45.32C57.0109 44.6211 55.8296 44.2472 54.6192 44.25H53.1192L54.1192 48.06L54.6492 50.06L55.1792 52L58.4692 64.13L58.7892 65.29C58.9892 66.04 59.1792 66.8 59.3592 67.56C59.4392 67.9 59.5092 68.24 59.5792 68.56C59.7192 69.19 59.8492 69.82 59.9592 70.45C60.4588 72.8726 60.8062 75.3241 60.9992 77.79H81.9992L79.8392 75.63C79.6621 75.4546 79.5215 75.2459 79.4254 75.016C79.3292 74.786 79.2796 74.5393 79.2792 74.29C79.2755 73.8102 79.4583 73.3476 79.7892 73L82.3292 70.45L86.1092 66.67L87.8692 64.91C88.2248 64.5589 88.7044 64.362 89.2042 64.362C89.704 64.362 90.1836 64.5589 90.5392 64.91L98.6192 73C98.7955 73.1748 98.9354 73.3828 99.0309 73.6119C99.1263 73.841 99.1755 74.0868 99.1755 74.335C99.1755 74.5833 99.1263 74.829 99.0309 75.0582C98.9354 75.2873 98.7955 75.4953 98.6192 75.67L96.4592 77.83H117.459C117.611 75.3547 117.908 72.8905 118.349 70.45C118.469 69.82 118.589 69.19 118.729 68.56C118.799 68.22 118.879 67.88 118.959 67.56C119.129 66.8 119.319 66.04 119.529 65.29L119.839 64.13L125.229 44.3H123.719C122.767 44.2907 121.828 44.5145 120.982 44.952C120.137 45.3896 119.411 46.0275 118.869 46.81Z" fill="#D6B66B"/>
<path d="M94.6091 74.2899L90.7291 70.4099L89.1991 68.8799L87.6691 70.4099L83.7891 74.2899L89.1991 79.6999L94.6091 74.2899Z" fill="#179999"/>
<path d="M127.691 40.46H123.691C122.113 40.4537 120.559 40.8353 119.164 41.5711C117.769 42.307 116.576 43.3747 115.691 44.68L111.181 51.32C110.681 50.86 110.181 50.42 109.641 49.99C105.86 46.9513 101.45 44.7924 96.7307 43.67L96.0007 35.4C95.8324 33.8229 95.1165 32.3548 93.9776 31.251C92.8387 30.1472 91.3489 29.4776 89.7673 29.3587C88.1858 29.2398 86.6126 29.6791 85.3215 30.6002C84.0303 31.5213 83.103 32.8658 82.7007 34.4C81.1493 33.5438 79.3877 33.1431 77.6186 33.2439C75.8495 33.3448 74.1448 33.9431 72.7007 34.97L61.2507 43C59.4688 41.3429 57.1241 40.4243 54.6907 40.43H50.6907C50.3991 40.4292 50.1112 40.4955 49.8494 40.6238C49.5875 40.7522 49.3587 40.939 49.1807 41.17C49.0079 41.4019 48.8894 41.6697 48.834 41.9536C48.7786 42.2374 48.7878 42.5301 48.8607 42.81L51.0007 50.39L45.2807 54.48C44.0737 55.3442 43.0878 56.4811 42.4031 57.7982C41.7185 59.1154 41.3545 60.5756 41.3407 62.06L41.0007 94.47C40.9828 95.9988 41.3377 97.5089 42.0346 98.8698C42.7316 100.231 43.7497 101.401 45.0007 102.28L62.9107 114.76L64.8007 116.08L66.6907 117.39L72.6107 121.52C74.209 122.624 76.1078 123.21 78.0502 123.199C79.9925 123.188 81.8847 122.581 83.4707 121.46L110.901 101.89C111.174 101.69 111.434 101.48 111.681 101.26C112.434 100.596 113.073 99.8121 113.571 98.94C114.234 97.8066 114.65 96.5456 114.791 95.24C114.791 94.9 114.791 94.57 114.791 94.24V89.65H119.361C120.78 89.6603 122.155 89.1607 123.236 88.2421C124.318 87.3234 125.033 86.047 125.253 84.6451C125.472 83.2433 125.18 81.8093 124.431 80.6043C123.682 79.3993 122.525 78.5035 121.171 78.08C121.411 74.0708 122.061 70.0967 123.111 66.22L129.461 42.84C129.538 42.5602 129.549 42.2664 129.494 41.9815C129.439 41.6967 129.318 41.4285 129.142 41.198C128.966 40.9674 128.738 40.7809 128.478 40.6528C128.217 40.5248 127.931 40.4588 127.641 40.46H127.691ZM98.8707 48.19C102.685 49.5296 106.172 51.6633 109.101 54.45L108.621 55.16L107.551 56.72L102.481 64.19C102.238 64.5386 101.893 64.8039 101.494 64.95C101.095 65.0962 100.661 65.116 100.25 65.0067C99.8399 64.8975 99.4728 64.6646 99.1991 64.3396C98.9254 64.0146 98.7584 63.6132 98.7207 63.19L97.3507 49.42L97.1707 47.65C97.7507 47.81 98.3207 48 98.8707 48.19ZM74.8107 38C75.7661 37.3168 76.9112 36.9494 78.0857 36.9494C79.2602 36.9494 80.4053 37.3168 81.3607 38L82.1407 38.56L81.6307 43.67C76.91 44.7932 72.4995 46.9557 68.7207 50C68.1907 50.43 67.7207 50.87 67.1707 51.33L63.5807 46L74.8107 38ZM81.2307 47.65L79.6707 63.23C79.633 63.6532 79.466 64.0546 79.1923 64.3796C78.9186 64.7046 78.5515 64.9375 78.1409 65.0467C77.7303 65.156 77.296 65.1362 76.897 64.99C76.498 64.8439 76.1537 64.5786 75.9107 64.23L69.3007 54.45C72.6673 51.2497 76.7616 48.916 81.2307 47.65ZM108.701 98.82L81.3007 118.38C80.3506 119.048 79.2173 119.407 78.0557 119.407C76.8941 119.407 75.7608 119.048 74.8107 118.38L66.8107 112.77C67.1262 108.913 68.8774 105.316 71.7179 102.688C74.5583 100.061 78.2813 98.5946 82.1507 98.58H109.001L108.701 98.82ZM111.061 94.23C111.071 94.4199 111.071 94.6101 111.061 94.8H82.1507C77.6861 94.8052 73.3623 96.3637 69.9212 99.2082C66.48 102.053 64.1358 106.006 63.2907 110.39L47.1907 99.18C46.4399 98.6535 45.8283 97.9524 45.4085 97.1372C44.9887 96.322 44.7733 95.4169 44.7807 94.5L45.0707 62.09C45.0791 61.2009 45.2972 60.3264 45.7073 59.5375C46.1174 58.7486 46.7079 58.0677 47.4307 57.55L52.0007 54.29L55.2407 66.22C56.2986 70.0954 56.952 74.0699 57.1907 78.08C55.8365 78.5035 54.6794 79.3993 53.9302 80.6043C53.181 81.8093 52.8895 83.2433 53.1088 84.6451C53.3281 86.047 54.0436 87.3234 55.125 88.2421C56.2065 89.1607 57.5818 89.6603 59.0007 89.65H111.061V94.23ZM121.571 83.72C121.568 84.2911 121.339 84.838 120.935 85.2409C120.53 85.6438 119.982 85.87 119.411 85.87H59.0007C58.5824 85.8703 58.1732 85.7486 57.823 85.5199C57.4729 85.2911 57.1971 84.9652 57.0294 84.582C56.8616 84.1989 56.8094 83.7751 56.8789 83.3627C56.9484 82.9502 57.1367 82.567 57.4207 82.26C57.6233 82.0436 57.8679 81.8708 58.1396 81.7521C58.4113 81.6335 58.7043 81.5715 59.0007 81.57H85.7307L87.8407 83.68C88.0154 83.8545 88.2228 83.9929 88.451 84.0873C88.6792 84.1817 88.9238 84.2302 89.1707 84.23C89.6718 84.2276 90.1524 84.0303 90.5107 83.68L92.6507 81.54H119.381C119.677 81.5397 119.971 81.6009 120.243 81.7197C120.515 81.8384 120.759 82.0122 120.961 82.23C121.351 82.6277 121.57 83.1626 121.571 83.72ZM83.7907 74.29L87.6807 70.41L89.2007 68.88L90.7307 70.41L94.6107 74.29L89.2007 79.7L83.7907 74.29ZM119.791 64.07L119.481 65.23C119.271 65.98 119.081 66.74 118.911 67.5C118.831 67.84 118.751 68.18 118.681 68.5C118.541 69.13 118.421 69.76 118.301 70.39C117.86 72.8304 117.562 75.2947 117.411 77.77H96.4107L98.5707 75.61C98.747 75.4352 98.8869 75.2272 98.9824 74.9981C99.0779 74.769 99.127 74.5232 99.127 74.275C99.127 74.0268 99.0779 73.781 98.9824 73.5518C98.8869 73.3227 98.747 73.1148 98.5707 72.94L90.4907 64.85C90.1351 64.4988 89.6555 64.3019 89.1557 64.3019C88.6559 64.3019 88.1763 64.4988 87.8207 64.85L86.0607 66.61L82.2807 70.39L79.7907 73C79.613 73.1728 79.4719 73.3797 79.3757 73.6081C79.2795 73.8366 79.2302 74.0821 79.2307 74.33C79.2311 74.5792 79.2808 74.8259 79.3769 75.0559C79.473 75.2859 79.6136 75.4946 79.7907 75.67L82.0007 77.79H61.0007C60.8589 75.3138 60.5617 72.8489 60.1107 70.41C60.0007 69.78 59.8707 69.15 59.7307 68.52C59.6607 68.18 59.5907 67.84 59.5107 67.52C59.3307 66.76 59.1407 66 58.9407 65.25L58.6207 64.09L55.2807 51.94L54.7507 50L54.2207 48L53.2207 44.19H54.7207C55.9311 44.1871 57.1124 44.5611 58.1007 45.26C58.627 45.6334 59.0896 46.0892 59.4707 46.61L59.5707 46.76L60.5707 48.17L64.5707 54.04L65.6707 55.66L66.7507 57.25L72.8607 66.25L73.1007 66.57C73.7793 67.4334 74.6873 68.0884 75.7207 68.46C76.8768 68.8775 78.1352 68.9196 79.3167 68.5803C80.4981 68.2409 81.5424 67.5374 82.3007 66.57C82.9783 65.7028 83.4008 64.6639 83.5207 63.57L85.1907 46.8L85.3907 44.87L85.4907 43L85.6807 41.1L85.9007 38.93L86.1207 36.77L86.2207 35.77C86.2207 34.9743 86.5368 34.2113 87.0994 33.6487C87.662 33.0861 88.4251 32.77 89.2207 32.77C90.0164 32.77 90.7794 33.0861 91.342 33.6487C91.9046 34.2113 92.2207 34.9743 92.2207 35.77L92.7907 41.49L92.9107 43L93.0107 44L93.1007 44.9L93.2607 46.5V46.83L95.0007 63.6C95.1167 64.6932 95.5358 65.7322 96.2107 66.6C96.8866 67.4662 97.7955 68.1218 98.8307 68.49C100.122 68.966 101.54 68.966 102.831 68.49C103.867 68.1238 104.776 67.4678 105.451 66.6C105.537 66.4982 105.617 66.3914 105.691 66.28L110.411 59.28L111.561 57.58L111.811 57.22L112.601 56L112.821 55.68L113.921 54.06L118.921 46.78C119.455 45.9877 120.176 45.339 121.02 44.8909C121.864 44.4427 122.805 44.2089 123.761 44.21H125.271L119.791 64.07Z" fill="#0B7373"/>
</svg>
